<svg width="343" height="65" fill="none" xmlns="http://www.w3.org/2000/svg"><mask id="path-1-inside-1_1_601" fill="white"><path fill-rule="evenodd" clip-rule="evenodd" d="M23 0.487305H320V0.914557L342.921 32.4625L320 64.0104V64.4873H23V64.0777L0.0800781 32.5311L23 0.984568V0.487305Z"/></mask><path d="M320 0.487305H322V-1.5127H320V0.487305ZM23 0.487305V-1.5127H21V0.487305H23ZM320 0.914557H318V1.5644L318.382 2.09013L320 0.914557ZM342.921 32.4625L344.539 33.6381L345.393 32.4625L344.539 31.2869L342.921 32.4625ZM320 64.0104L318.382 62.8348L318 63.3606V64.0104H320ZM320 64.4873V66.4873H322V64.4873H320ZM23 64.4873H21V66.4873H23V64.4873ZM23 64.0777H25V63.4279L24.618 62.9021L23 64.0777ZM0.0800781 32.5311L-1.53796 31.3556L-2.39206 32.5311L-1.53796 33.7067L0.0800781 32.5311ZM23 0.984568L24.618 2.16014L25 1.63441V0.984568H23ZM320 -1.5127H23V2.4873H320V-1.5127ZM322 0.914557V0.487305H318V0.914557H322ZM344.539 31.2869L321.618 -0.261013L318.382 2.09013L341.303 33.6381L344.539 31.2869ZM321.618 65.186L344.539 33.6381L341.303 31.2869L318.382 62.8348L321.618 65.186ZM322 64.4873V64.0104H318V64.4873H322ZM23 66.4873H320V62.4873H23V66.4873ZM21 64.0777V64.4873H25V64.0777H21ZM-1.53796 33.7067L21.382 65.2533L24.618 62.9021L1.69811 31.3556L-1.53796 33.7067ZM21.382 -0.191002L-1.53796 31.3556L1.69811 33.7067L24.618 2.16014L21.382 -0.191002ZM21 0.487305V0.984568H25V0.487305H21Z" fill="#C86D37" mask="url(#path-1-inside-1_1_601)"/><circle cx="23.8939" cy="32.5311" r="2.7757" fill="#BE5B26"/><circle cx="321.446" cy="32.5311" r="2.7757" fill="#BE5B26"/></svg>